<svg xmlns="http://www.w3.org/2000/svg" width="161" height="19" viewBox="0 0 161 19">
  <defs>
    <style>
      .cls-1 {
        fill: #fff;
        fill-rule: evenodd;
      }
    </style>
  </defs>
  <path id="Logotype" class="cls-1" d="M80.815,49.617H86.7l3.152-18.211h-5.88l-1.162,6.522h-5.1l1.163-6.522H72.99L69.838,49.617h5.88L76.9,42.8H82ZM93.179,31.383L91.391,41.515a11.745,11.745,0,0,0-.224,2.279c0,5.371,4.65,6.183,7.445,6.183,5.858,0,8.385-1.963,9.3-7.266l1.968-11.351H104l-1.677,9.523c-0.537,2.979-.917,4.536-3.108,4.536-1.431,0-2.124-.767-2.124-2.347a12.359,12.359,0,0,1,.268-2.279l1.7-9.433h-5.88v0.023Zm47.779,18.234h5.88l0.828-4.694h2.772c5.12,0,7.96-2.8,7.96-7.9,0-3.588-2.46-5.642-6.775-5.642h-7.512Zm9.167-9.184h-1.7l0.782-4.288H150.8a1.728,1.728,0,0,1,1.99,1.85A2.36,2.36,0,0,1,150.125,40.432ZM169.823,31c-6.4,0-10.218,4.175-10.218,11.193,0,4.874,3.041,7.808,8.138,7.808,6.4,0,10.218-4.174,10.218-11.193C177.983,33.91,174.943,31,169.823,31ZM168.1,45.284c-1.52,0-2.415-1.106-2.415-2.956a10.139,10.139,0,0,1,.2-2.009c0.447-2.392,1.207-4.581,3.6-4.581,1.521,0,2.415,1.106,2.415,2.956a10.205,10.205,0,0,1-.2,2.008C171.253,43.073,170.493,45.284,168.1,45.284Zm30.317,4.333H204.3l2.325-13.337h4.427l0.849-4.875H196.853L196,36.28h4.7ZM188.67,38.13c-1.855-.587-2.616-0.835-2.616-1.715a1.305,1.305,0,0,1,1.5-1.287,1.876,1.876,0,0,1,1.789,1.174l5.187-1.422c-0.6-2.573-2.795-3.882-6.573-3.882-7.11,0-7.669,4.807-7.669,6.274,0,2.979,1.565,4.807,4.964,5.755,0.894,0.248,1.922.519,1.922,1.512a1.342,1.342,0,0,1-1.587,1.287,2.374,2.374,0,0,1-2.236-1.49l-5.12,1.4c0.559,2.708,3.086,4.243,7.043,4.243,3.018,0,8.071-.813,8.071-6.319C193.366,40.906,191.823,39.1,188.67,38.13ZM66.551,49.617l3.175-18.211H60V49.617h6.551ZM214.427,31.405l-3.153,18.212H221V31.405h-6.573Zm-101.193-.022-3.152,18.234h5.88l0.939-5.371h4.941l0.805-4.581h-4.941l0.559-3.385h6.909l0.849-4.9H113.234Zm15.427,0-3.152,18.234h5.88l0.917-5.371h4.963l0.805-4.581h-4.941l0.559-3.385H140.6l0.849-4.9H128.661Z" transform="translate(-60 -31)"/>
</svg>
