<svg id="More" xmlns="http://www.w3.org/2000/svg" width="50" height="50" viewBox="0 0 50 50">
  <defs>
    <style>
      .cls-1 {
        fill: #fff;
      }

      .cls-2 {
        fill: #171717;
        fill-rule: evenodd;
      }
    </style>
  </defs>
  <circle class="cls-1" cx="25" cy="25" r="25"/>
  <path id="_..." data-name="..." class="cls-2" d="M1346.52,40.45a1.779,1.779,0,0,0,1.36.549,1.831,1.831,0,0,0,1.41-.549,2.024,2.024,0,0,0,.52-1.463,1.979,1.979,0,0,0-.52-1.45,1.855,1.855,0,0,0-1.41-.536,1.8,1.8,0,0,0-1.36.536,1.979,1.979,0,0,0-.52,1.45A2.024,2.024,0,0,0,1346.52,40.45Zm6.09,0a1.779,1.779,0,0,0,1.36.549,1.831,1.831,0,0,0,1.41-.549,2.024,2.024,0,0,0,.52-1.463,1.979,1.979,0,0,0-.52-1.45,1.855,1.855,0,0,0-1.41-.536,1.8,1.8,0,0,0-1.36.536,1.979,1.979,0,0,0-.52,1.45A2.024,2.024,0,0,0,1352.61,40.45Zm6.09,0a1.779,1.779,0,0,0,1.36.549,1.831,1.831,0,0,0,1.41-.549,2.024,2.024,0,0,0,.52-1.463,1.979,1.979,0,0,0-.52-1.45,1.855,1.855,0,0,0-1.41-.536,1.8,1.8,0,0,0-1.36.536,1.979,1.979,0,0,0-.52,1.45A2.024,2.024,0,0,0,1358.7,40.45Z" transform="translate(-1329 -14)"/>
</svg>
